<?xml version="1.0" standalone="no"?>
<!DOCTYPE svg PUBLIC "-//W3C//DTD SVG 20010904//EN"
 "http://www.w3.org/TR/2001/REC-SVG-20010904/DTD/svg10.dtd">
<svg version="1.0" xmlns="http://www.w3.org/2000/svg"
 width="1280.000000pt" height="904.000000pt" viewBox="0 0 1280.000000 904.000000"
 preserveAspectRatio="xMidYMid meet">
<g transform="translate(0.000000,904.000000) scale(0.100000,-0.100000)"
fill="#000000" stroke="none">
<path d="M6090 8580 c-915 -70 -1650 -348 -2311 -876 -762 -609 -1264 -1415
-1463 -2348 -78 -364 -101 -604 -100 -1046 0 -370 11 -513 60 -805 132 -785
468 -1453 1002 -1994 796 -803 1859 -1169 3228 -1112 398 16 657 42 949 96
348 64 754 185 920 275 l95 51 0 301 c0 282 -1 300 -17 293 -574 -229 -990
-329 -1578 -377 -235 -19 -787 -16 -975 5 -1064 120 -1837 572 -2375 1387
-292 441 -461 957 -520 1580 -22 223 -16 714 9 920 109 867 437 1560 1016
2140 434 435 963 724 1530 835 268 52 360 59 740 59 381 1 510 -9 790 -60 410
-75 785 -215 1100 -410 326 -201 644 -513 867 -849 171 -258 308 -570 387
-880 154 -612 136 -1398 -45 -1947 -84 -253 -194 -458 -349 -652 -180 -223
-479 -347 -739 -307 -106 17 -192 61 -263 135 -33 33 -84 87 -114 118 -39 40
-83 71 -151 106 l-96 50 54 7 c30 4 70 16 89 26 19 10 56 27 81 39 55 24 66
45 73 145 3 39 12 156 21 260 8 105 22 282 30 395 9 113 24 321 35 462 10 141
24 266 29 277 6 11 11 75 11 143 0 68 7 206 15 308 9 102 26 329 39 505 24
316 33 370 65 380 9 2 116 25 239 50 329 66 383 80 472 125 64 32 84 48 95 73
28 68 -20 137 -95 137 -35 0 -292 -49 -598 -114 -62 -13 -114 -21 -116 -17 -2
3 -7 25 -11 47 -3 24 -16 51 -29 63 -27 25 -81 36 -114 24 -30 -12 -107 -69
-151 -114 -20 -20 -54 -42 -76 -48 -22 -6 -166 -27 -320 -47 -154 -19 -527
-66 -830 -105 -772 -98 -1624 -206 -2280 -289 -308 -38 -570 -72 -582 -75 -12
-3 -25 -17 -31 -33 -7 -21 -19 -31 -40 -35 -54 -11 -57 -32 -27 -191 14 -77
44 -233 65 -346 21 -113 53 -281 70 -375 17 -93 49 -262 70 -375 21 -113 53
-281 70 -375 51 -282 59 -313 83 -330 19 -13 226 -15 1765 -15 1913 0 1798 4
1820 -60 12 -34 5 -209 -9 -232 -7 -11 -319 -14 -1742 -18 l-1733 -5 -43 -30
c-23 -16 -57 -41 -76 -54 -65 -46 -70 -112 -12 -155 l28 -21 1639 -5 c1217 -4
1642 -8 1651 -17 8 -8 5 -13 -12 -18 -32 -10 -128 -75 -213 -144 -136 -110
-198 -230 -198 -386 -1 -297 261 -512 578 -473 40 4 98 17 129 28 74 26 113
25 238 -2 88 -19 132 -22 317 -22 194 0 227 3 341 27 454 96 834 337 1147 726
414 514 622 1180 622 1988 0 997 -321 1823 -958 2467 -642 650 -1458 1027
-2427 1121 -189 19 -691 27 -855 15z m1167 -650 c146 -28 302 -70 458 -124
952 -326 1644 -1123 1845 -2126 58 -285 64 -365 65 -745 0 -368 -9 -481 -56
-720 -30 -152 -114 -434 -125 -422 -2 2 10 49 26 105 37 128 73 315 97 497 25
196 25 750 0 940 -72 539 -220 954 -483 1350 -272 411 -641 740 -1074 960
-269 136 -503 216 -875 298 -15 4 -16 5 -3 6 9 0 66 -8 125 -19z m696 -1717
c3 -5 1 -53 -4 -108 -4 -55 -15 -192 -23 -305 -20 -264 -45 -581 -52 -647 -4
-39 -10 -53 -21 -53 -19 0 -18 26 22 535 42 543 41 499 17 539 l-21 35 22 4
c38 7 56 7 60 0z m-113 -68 c18 -19 24 -36 24 -73 0 -60 -52 -741 -70 -919 -5
-47 -8 -52 -36 -62 -19 -7 -125 -11 -270 -11 -238 0 -239 0 -247 23 -4 12 -13
231 -19 486 -9 364 -9 470 1 490 12 25 18 26 222 52 116 15 221 29 235 31 14
3 50 6 81 7 47 1 59 -3 79 -24z m-866 -127 c3 -40 8 -183 11 -318 3 -135 8
-325 12 -422 6 -174 6 -178 -14 -178 -19 0 -21 9 -27 108 -3 59 -11 262 -16
452 -10 306 -13 349 -30 382 -22 42 -18 48 26 48 l32 0 6 -72z m-140 18 c22
-9 37 -24 44 -44 6 -17 16 -220 23 -456 10 -336 10 -429 0 -439 -9 -9 -129
-13 -487 -15 l-474 -3 -9 23 c-4 13 -11 70 -15 128 -3 58 -13 197 -21 310 -18
256 -19 361 -2 382 9 11 79 23 277 48 146 17 339 42 430 55 203 28 194 28 234
11z m-1187 -311 c7 -104 19 -284 27 -400 8 -115 10 -214 6 -219 -17 -18 -40 3
-40 36 0 18 -5 87 -10 153 -5 66 -14 201 -20 300 -13 202 -24 278 -45 295 -23
19 -7 31 33 28 l37 -3 12 -190z m-3148 94 c-39 -127 -107 -417 -133 -564 -124
-724 -88 -1498 99 -2151 172 -600 477 -1116 920 -1559 417 -417 891 -708 1455
-893 143 -47 380 -111 475 -128 22 -4 35 -9 28 -11 -7 -3 -61 5 -120 17 -613
122 -1144 367 -1620 746 -128 102 -428 402 -529 529 -347 435 -571 893 -699
1428 -171 717 -163 1570 21 2277 38 146 113 384 119 378 3 -2 -5 -33 -16 -69z
m3028 27 c15 -18 23 -44 27 -88 10 -115 36 -502 39 -577 2 -71 1 -76 -23 -88
-19 -10 -103 -13 -343 -13 l-317 0 -9 23 c-5 12 -12 67 -15 122 -4 55 -14 169
-22 254 -8 85 -14 190 -14 233 0 72 2 79 23 88 12 5 139 23 282 40 143 18 262
34 265 37 14 13 87 -8 107 -31z m-1718 -63 c6 -21 17 -81 26 -133 9 -52 20
-113 25 -135 5 -22 23 -116 40 -210 17 -93 40 -215 50 -270 10 -55 30 -163 45
-240 14 -77 37 -198 50 -270 13 -71 36 -193 50 -270 15 -77 35 -184 46 -237
23 -116 23 -128 5 -128 -27 0 -42 28 -55 101 -7 41 -44 241 -82 444 -38 204
-83 444 -100 535 -17 91 -50 269 -74 395 -74 395 -78 422 -72 439 11 29 36 18
46 -21z m791 -2 c0 -4 7 -73 15 -152 8 -79 19 -214 25 -299 6 -85 13 -170 16
-188 4 -24 1 -34 -11 -38 -9 -4 -20 -3 -25 2 -5 5 -16 97 -25 204 -25 314 -35
392 -55 432 -21 40 -17 46 33 47 15 1 27 -3 27 -8z m-148 -42 c25 -6 43 -19
52 -37 15 -29 29 -148 51 -417 11 -147 11 -172 -1 -185 -12 -12 -50 -16 -185
-18 -94 -2 -175 0 -180 5 -10 10 -17 44 -75 353 -37 199 -41 245 -21 257 6 4
80 17 162 29 83 12 152 22 155 23 3 0 22 -4 42 -10z m228 -891 c0 -4 25 -292
45 -518 19 -215 19 -202 -7 -198 -25 3 -21 -30 -63 457 -15 179 -21 207 -53
244 -14 16 -12 17 31 17 26 0 47 -1 47 -2z m1025 -10 c4 -12 45 -637 45 -685
0 -16 -6 -23 -20 -23 -26 0 -26 0 -45 320 -17 292 -25 342 -58 378 l-20 22 47
0 c28 0 48 -5 51 -12z m1309 -195 c3 -115 7 -275 9 -358 2 -144 1 -150 -18
-150 -19 0 -20 9 -27 285 -9 340 -12 361 -44 400 l-26 30 50 0 50 0 6 -207z
m836 197 c0 -74 -53 -697 -60 -704 -25 -25 -27 22 -9 254 25 335 25 400 -2
434 l-20 26 45 0 c25 0 46 -4 46 -10z m-3336 -30 c81 -18 83 -25 116 -419 19
-223 20 -245 5 -260 -13 -13 -39 -16 -138 -16 -120 0 -122 0 -133 25 -11 23
-39 165 -100 504 -32 179 -33 176 103 176 60 0 126 -5 147 -10z m1063 -16 c15
-11 33 -36 39 -55 10 -29 44 -480 44 -576 0 -26 -5 -33 -31 -42 -37 -13 -617
-15 -636 -3 -14 9 -22 85 -49 429 -14 174 -15 228 -6 248 l12 26 299 -3 c286
-3 301 -4 328 -24z m1255 20 c55 -9 86 -45 92 -107 3 -29 8 -170 12 -314 l6
-262 -39 -10 c-44 -13 -881 -15 -900 -3 -8 5 -17 88 -28 242 -28 410 -28 415
-16 438 l12 22 412 0 c227 0 429 -3 449 -6z m890 -16 c17 -11 29 -31 33 -50 3
-18 -3 -161 -15 -318 -16 -218 -24 -289 -36 -300 -12 -12 -54 -16 -219 -18
-189 -3 -204 -2 -213 15 -5 10 -12 159 -16 331 -6 281 -5 316 9 339 l17 25
207 -4 c176 -3 211 -6 233 -20z m51 -915 c3 -5 0 -78 -7 -163 -10 -136 -13
-155 -29 -158 -17 -3 -18 4 -11 120 6 105 4 129 -10 156 -9 18 -21 32 -27 32
-6 0 -7 5 -4 10 7 12 82 14 88 3z m-3635 -535 l26 -28 -28 0 c-43 0 -66 17
-66 50 0 32 21 45 34 21 5 -9 20 -28 34 -43z m2903 -524 c-26 -223 124 -456
342 -531 78 -26 24 -30 -62 -4 -128 39 -237 134 -293 257 -20 42 -23 65 -22
159 0 82 5 120 18 149 9 21 19 37 21 35 2 -2 0 -32 -4 -65z m894 -513 c33 -11
52 -20 43 -20 -27 -2 -122 20 -132 30 -16 15 24 10 89 -10z m-2542 -1808 c-7
-2 -19 -2 -25 0 -7 3 -2 5 12 5 14 0 19 -2 13 -5z"/>
<path d="M4771 3010 c-77 -28 -150 -74 -226 -142 -111 -101 -154 -228 -121
-359 58 -229 301 -339 550 -248 153 55 252 136 305 248 22 48 26 70 26 146 0
82 -3 97 -32 156 -40 81 -102 140 -191 182 -58 28 -79 32 -162 35 -75 2 -106
-2 -149 -18z m-273 -344 c0 -84 8 -120 45 -189 37 -70 107 -136 190 -178 l62
-30 -49 5 c-107 13 -210 87 -260 189 -21 41 -26 66 -26 124 0 64 19 143 34
143 2 0 4 -29 4 -64z"/>
</g>
</svg>
